<mxfile host="app.diagrams.net" modified="2024-12-17T07:26:19.267Z" agent="Mozilla/5.0 (Windows NT 10.0; WOW64) AppleWebKit/537.36 (KHTML, like Gecko) Chrome/101.0.4951.64 Safari/537.36" etag="XkCxbGhO-dbfPZFFey7O" version="24.6.4" type="github">
  <diagram name="第 1 页" id="sJdP1vu1BjGICRUaxiKO">
    <mxGraphModel dx="1434" dy="755" grid="1" gridSize="10" guides="1" tooltips="1" connect="1" arrows="1" fold="1" page="1" pageScale="1" pageWidth="827" pageHeight="1169" math="0" shadow="0">
      <root>
        <mxCell id="0" />
        <mxCell id="1" parent="0" />
        <mxCell id="bak3kjK1d3TOAfQl57Mx-1" value="基本开发流程" style="swimlane;childLayout=stackLayout;resizeParent=1;resizeParentMax=0;startSize=20;html=1;" parent="1" vertex="1">
          <mxGeometry x="160.00000000000045" y="50" width="660" height="480" as="geometry" />
        </mxCell>
        <mxCell id="bak3kjK1d3TOAfQl57Mx-2" value="组员" style="swimlane;startSize=20;html=1;" parent="bak3kjK1d3TOAfQl57Mx-1" vertex="1">
          <mxGeometry y="20" width="270" height="460" as="geometry" />
        </mxCell>
        <mxCell id="bak3kjK1d3TOAfQl57Mx-12" value="" style="edgeStyle=orthogonalEdgeStyle;rounded=0;orthogonalLoop=1;jettySize=auto;html=1;" parent="bak3kjK1d3TOAfQl57Mx-2" source="bak3kjK1d3TOAfQl57Mx-10" target="bak3kjK1d3TOAfQl57Mx-11" edge="1">
          <mxGeometry relative="1" as="geometry" />
        </mxCell>
        <mxCell id="82KzWfVbhQm0rZklGcwY-3" value="copy" style="edgeLabel;html=1;align=center;verticalAlign=middle;resizable=0;points=[];" parent="bak3kjK1d3TOAfQl57Mx-12" vertex="1" connectable="0">
          <mxGeometry x="-0.0571" y="-1" relative="1" as="geometry">
            <mxPoint as="offset" />
          </mxGeometry>
        </mxCell>
        <mxCell id="bak3kjK1d3TOAfQl57Mx-10" value="task" style="whiteSpace=wrap;html=1;" parent="bak3kjK1d3TOAfQl57Mx-2" vertex="1">
          <mxGeometry x="79.99999999999955" y="270" width="120" height="60" as="geometry" />
        </mxCell>
        <mxCell id="bak3kjK1d3TOAfQl57Mx-11" value="task-to-dev" style="whiteSpace=wrap;html=1;" parent="bak3kjK1d3TOAfQl57Mx-2" vertex="1">
          <mxGeometry x="79.99999999999955" y="140" width="120" height="60" as="geometry" />
        </mxCell>
        <mxCell id="bak3kjK1d3TOAfQl57Mx-3" value="测试" style="swimlane;startSize=20;html=1;" parent="bak3kjK1d3TOAfQl57Mx-1" vertex="1">
          <mxGeometry x="270" y="20" width="180" height="460" as="geometry" />
        </mxCell>
        <mxCell id="82KzWfVbhQm0rZklGcwY-9" value="" style="edgeStyle=orthogonalEdgeStyle;rounded=0;orthogonalLoop=1;jettySize=auto;html=1;" parent="bak3kjK1d3TOAfQl57Mx-3" source="82KzWfVbhQm0rZklGcwY-5" target="82KzWfVbhQm0rZklGcwY-8" edge="1">
          <mxGeometry relative="1" as="geometry" />
        </mxCell>
        <mxCell id="82KzWfVbhQm0rZklGcwY-5" value="发布测试环境" style="ellipse;whiteSpace=wrap;html=1;" parent="bak3kjK1d3TOAfQl57Mx-3" vertex="1">
          <mxGeometry x="40" y="130" width="80" height="80" as="geometry" />
        </mxCell>
        <mxCell id="82KzWfVbhQm0rZklGcwY-8" value="是否验收通过" style="rhombus;whiteSpace=wrap;html=1;" parent="bak3kjK1d3TOAfQl57Mx-3" vertex="1">
          <mxGeometry x="40" y="260" width="80" height="80" as="geometry" />
        </mxCell>
        <mxCell id="82KzWfVbhQm0rZklGcwY-7" value="组长" style="swimlane;startSize=20;html=1;" parent="bak3kjK1d3TOAfQl57Mx-1" vertex="1">
          <mxGeometry x="450" y="20" width="210" height="460" as="geometry" />
        </mxCell>
        <mxCell id="82KzWfVbhQm0rZklGcwY-12" value="task合并到master" style="whiteSpace=wrap;html=1;" parent="82KzWfVbhQm0rZklGcwY-7" vertex="1">
          <mxGeometry x="50" y="270" width="120" height="60" as="geometry" />
        </mxCell>
        <mxCell id="82KzWfVbhQm0rZklGcwY-6" value="" style="edgeStyle=orthogonalEdgeStyle;rounded=0;orthogonalLoop=1;jettySize=auto;html=1;" parent="bak3kjK1d3TOAfQl57Mx-1" source="bak3kjK1d3TOAfQl57Mx-11" target="82KzWfVbhQm0rZklGcwY-5" edge="1">
          <mxGeometry relative="1" as="geometry" />
        </mxCell>
        <mxCell id="82KzWfVbhQm0rZklGcwY-10" style="edgeStyle=orthogonalEdgeStyle;rounded=0;orthogonalLoop=1;jettySize=auto;html=1;exitX=0;exitY=0.5;exitDx=0;exitDy=0;entryX=1;entryY=0.5;entryDx=0;entryDy=0;" parent="bak3kjK1d3TOAfQl57Mx-1" source="82KzWfVbhQm0rZklGcwY-8" target="bak3kjK1d3TOAfQl57Mx-10" edge="1">
          <mxGeometry relative="1" as="geometry" />
        </mxCell>
        <mxCell id="82KzWfVbhQm0rZklGcwY-11" value="失败" style="edgeLabel;html=1;align=center;verticalAlign=middle;resizable=0;points=[];" parent="82KzWfVbhQm0rZklGcwY-10" vertex="1" connectable="0">
          <mxGeometry x="-0.0545" y="-1" relative="1" as="geometry">
            <mxPoint as="offset" />
          </mxGeometry>
        </mxCell>
        <mxCell id="82KzWfVbhQm0rZklGcwY-13" value="" style="edgeStyle=orthogonalEdgeStyle;rounded=0;orthogonalLoop=1;jettySize=auto;html=1;" parent="bak3kjK1d3TOAfQl57Mx-1" source="82KzWfVbhQm0rZklGcwY-8" target="82KzWfVbhQm0rZklGcwY-12" edge="1">
          <mxGeometry relative="1" as="geometry" />
        </mxCell>
        <mxCell id="82KzWfVbhQm0rZklGcwY-14" value="成功" style="edgeLabel;html=1;align=center;verticalAlign=middle;resizable=0;points=[];" parent="82KzWfVbhQm0rZklGcwY-13" vertex="1" connectable="0">
          <mxGeometry x="-0.1478" y="-1" relative="1" as="geometry">
            <mxPoint as="offset" />
          </mxGeometry>
        </mxCell>
        <mxCell id="bak3kjK1d3TOAfQl57Mx-8" style="edgeStyle=orthogonalEdgeStyle;rounded=0;orthogonalLoop=1;jettySize=auto;html=1;exitX=1;exitY=0.5;exitDx=0;exitDy=0;exitPerimeter=0;entryX=0;entryY=0.5;entryDx=0;entryDy=0;" parent="1" source="bak3kjK1d3TOAfQl57Mx-7" target="bak3kjK1d3TOAfQl57Mx-10" edge="1">
          <mxGeometry relative="1" as="geometry">
            <mxPoint x="210" y="179.83333333333337" as="targetPoint" />
            <Array as="points">
              <mxPoint x="180" y="380" />
              <mxPoint x="180" y="380" />
            </Array>
          </mxGeometry>
        </mxCell>
        <mxCell id="82KzWfVbhQm0rZklGcwY-2" value="切个人分支" style="edgeLabel;html=1;align=center;verticalAlign=middle;resizable=0;points=[];" parent="bak3kjK1d3TOAfQl57Mx-8" vertex="1" connectable="0">
          <mxGeometry x="-0.3" y="1" relative="1" as="geometry">
            <mxPoint as="offset" />
          </mxGeometry>
        </mxCell>
        <mxCell id="bak3kjK1d3TOAfQl57Mx-13" style="edgeStyle=orthogonalEdgeStyle;rounded=0;orthogonalLoop=1;jettySize=auto;html=1;exitX=1;exitY=0.5;exitDx=0;exitDy=0;exitPerimeter=0;entryX=0.5;entryY=0;entryDx=0;entryDy=0;" parent="1" source="bak3kjK1d3TOAfQl57Mx-6" target="bak3kjK1d3TOAfQl57Mx-11" edge="1">
          <mxGeometry relative="1" as="geometry" />
        </mxCell>
        <mxCell id="82KzWfVbhQm0rZklGcwY-1" value="合并到个人分支，解决冲突" style="edgeLabel;html=1;align=center;verticalAlign=middle;resizable=0;points=[];" parent="bak3kjK1d3TOAfQl57Mx-13" vertex="1" connectable="0">
          <mxGeometry x="-0.0133" y="-1" relative="1" as="geometry">
            <mxPoint as="offset" />
          </mxGeometry>
        </mxCell>
        <mxCell id="bak3kjK1d3TOAfQl57Mx-6" value="Dev" style="shape=singleArrow;whiteSpace=wrap;html=1;arrowWidth=0.4;arrowSize=0.4;" parent="1" vertex="1">
          <mxGeometry x="30" y="150" width="90" height="60" as="geometry" />
        </mxCell>
        <mxCell id="bak3kjK1d3TOAfQl57Mx-7" value="Master" style="shape=singleArrow;whiteSpace=wrap;html=1;arrowWidth=0.4;arrowSize=0.4;" parent="1" vertex="1">
          <mxGeometry x="40" y="350" width="80" height="60" as="geometry" />
        </mxCell>
        <mxCell id="82KzWfVbhQm0rZklGcwY-16" style="edgeStyle=orthogonalEdgeStyle;rounded=0;orthogonalLoop=1;jettySize=auto;html=1;exitX=1;exitY=0.5;exitDx=0;exitDy=0;entryX=0;entryY=0.5;entryDx=0;entryDy=0;entryPerimeter=0;" parent="1" source="82KzWfVbhQm0rZklGcwY-15" target="bak3kjK1d3TOAfQl57Mx-7" edge="1">
          <mxGeometry relative="1" as="geometry">
            <Array as="points">
              <mxPoint x="70" y="330" />
              <mxPoint x="20" y="330" />
              <mxPoint x="20" y="380" />
            </Array>
          </mxGeometry>
        </mxCell>
        <mxCell id="82KzWfVbhQm0rZklGcwY-15" value="开始" style="triangle;whiteSpace=wrap;html=1;fillColor=#00FF00;" parent="1" vertex="1">
          <mxGeometry x="10" y="230" width="60" height="80" as="geometry" />
        </mxCell>
        <mxCell id="82KzWfVbhQm0rZklGcwY-17" value="结束" style="triangle;whiteSpace=wrap;html=1;fillColor=#00FF00;" parent="1" vertex="1">
          <mxGeometry x="690" y="560" width="60" height="80" as="geometry" />
        </mxCell>
        <mxCell id="82KzWfVbhQm0rZklGcwY-18" style="edgeStyle=orthogonalEdgeStyle;rounded=0;orthogonalLoop=1;jettySize=auto;html=1;exitX=0.5;exitY=1;exitDx=0;exitDy=0;" parent="1" source="82KzWfVbhQm0rZklGcwY-12" target="82KzWfVbhQm0rZklGcwY-17" edge="1">
          <mxGeometry relative="1" as="geometry" />
        </mxCell>
        <mxCell id="82KzWfVbhQm0rZklGcwY-19" value="发布" style="edgeLabel;html=1;align=center;verticalAlign=middle;resizable=0;points=[];" parent="82KzWfVbhQm0rZklGcwY-18" vertex="1" connectable="0">
          <mxGeometry x="-0.1667" y="1" relative="1" as="geometry">
            <mxPoint as="offset" />
          </mxGeometry>
        </mxCell>
        <mxCell id="oeL7mHQ1_lFTbCpvMOdm-1" value="生产环境现在用master2.0&amp;nbsp;分支发版&amp;nbsp;&amp;nbsp;dev继续保持测试" style="text;whiteSpace=wrap;html=1;" parent="1" vertex="1">
          <mxGeometry x="40" y="10" width="320" height="40" as="geometry" />
        </mxCell>
      </root>
    </mxGraphModel>
  </diagram>
</mxfile>
